# xmcd
#
# Track frame offsets:
#	182
#	16555
#	33457
#	52835
#	71040
#	89147
#	105577
#	121015
#	136907
#	154250
#
# Disc length: 2281 seconds
#
# Revision: 2
# Processed by: cddbd v1.5PL3 Copyright (c) Steve Scherf et al.
# Submitted via: audiograbber 1.83.01
#
DISCID=7908e70a
DTITLE=Sister Sledge(Flashback) - We Are Family
DYEAR=1997
DGENRE=blues
TTITLE0=We Are Family
TTITLE1=He's Just A Runaway
TTITLE2=Frankie
TTITLE3=Next Time You'll Know
TTITLE4=All American Girls
TTITLE5=Got To Love Somebody
TTITLE6=Love Don't You Go Through No Changes On Me
TTITLE7=Reach Your Peak
TTITLE8=B.Y.O.B.(Bring Your Own Baby) 
TTITLE9=My Guy
EXTD=
EXTT0=
EXTT1=
EXTT2=
EXTT3=
EXTT4=
EXTT5=
EXTT6=
EXTT7=
EXTT8=
EXTT9=
PLAYORDER=
